<?xml version="1.0" standalone="no"?>
<!DOCTYPE svg PUBLIC "-//W3C//DTD SVG 20010904//EN"
 "http://www.w3.org/TR/2001/REC-SVG-20010904/DTD/svg10.dtd">
<svg version="1.0" xmlns="http://www.w3.org/2000/svg"
 width="512.000000pt" height="512.000000pt" viewBox="0 0 512.000000 512.000000"
 preserveAspectRatio="xMidYMid meet">
<metadata>
Created by potrace 1.14, written by Peter Selinger 2001-2017
</metadata>
<g transform="translate(0.000000,512.000000) scale(0.100000,-0.100000)"
fill="#000000" stroke="none">
<path d="M2378 5115 c-2 -1 -39 -5 -82 -9 -44 -4 -82 -9 -85 -11 -4 -2 -34 -7
-66 -10 -117 -14 -472 -111 -499 -136 -6 -5 -16 -9 -23 -9 -8 0 -49 -16 -91
-35 -352 -161 -618 -354 -877 -637 -33 -36 -71 -80 -85 -98 -14 -18 -29 -38
-35 -44 -82 -92 -246 -369 -323 -546 -61 -142 -131 -351 -146 -443 -3 -15 -7
-35 -10 -45 -3 -9 -7 -34 -11 -56 -3 -21 -7 -41 -9 -45 -4 -6 -12 -72 -26
-201 -8 -85 -5 -454 4 -515 4 -22 13 -80 21 -130 29 -174 78 -357 142 -520 37
-93 123 -273 161 -335 12 -19 29 -48 38 -65 19 -35 138 -207 156 -227 7 -7 29
-34 48 -58 157 -203 415 -428 665 -577 107 -64 326 -173 348 -173 7 0 17 -4
23 -9 13 -13 208 -77 321 -106 226 -56 391 -74 663 -70 243 3 359 17 580 71
780 192 1429 751 1743 1502 82 195 150 443 173 632 28 225 26 531 -5 735 -97
635 -436 1219 -943 1622 -100 80 -251 179 -368 243 -81 43 -131 67 -275 130
-133 58 -419 133 -595 156 -25 3 -56 8 -70 10 -27 6 -456 14 -462 9z"/>
</g>
</svg>
